<mxfile host="app.diagrams.net" modified="2024-05-22T05:10:08.228Z" agent="Mozilla/5.0 (Macintosh; Intel Mac OS X 10_15_7) AppleWebKit/537.36 (KHTML, like Gecko) Chrome/120.0.0.0 Safari/537.36 Edg/120.0.0.0" etag="Ev9jbX4_6bYjA1RUmxmI" version="24.4.4" type="device" pages="6">
  <diagram name="包管理系统: Cargo" id="t3z_oCRomqSMoR9Z-RQh">
    <mxGraphModel dx="2260" dy="1402" grid="1" gridSize="10" guides="1" tooltips="1" connect="1" arrows="1" fold="1" page="1" pageScale="1" pageWidth="1169" pageHeight="827" math="0" shadow="0">
      <root>
        <mxCell id="0" />
        <mxCell id="1" parent="0" />
        <mxCell id="dSvhHqE3cjQIjAABBK11-1" value="&amp;nbsp;包" style="rounded=0;whiteSpace=wrap;html=1;fontSize=18;align=left;verticalAlign=top;" parent="1" vertex="1">
          <mxGeometry x="40" y="40" width="960" height="680" as="geometry" />
        </mxCell>
        <mxCell id="dSvhHqE3cjQIjAABBK11-3" value="&amp;nbsp;Crate" style="rounded=0;whiteSpace=wrap;html=1;fontSize=18;align=left;verticalAlign=top;" parent="1" vertex="1">
          <mxGeometry x="80" y="90" width="530" height="150" as="geometry" />
        </mxCell>
      </root>
    </mxGraphModel>
  </diagram>
  <diagram id="NhgyF1D42HxrKuCsMa_m" name="结构体实例内存分配" />
  <diagram id="l_ucy2QaUY69yVxOTtOI" name="智能指针内存分配">
    <mxGraphModel dx="871" dy="655" grid="1" gridSize="10" guides="1" tooltips="1" connect="1" arrows="1" fold="1" page="1" pageScale="1" pageWidth="1169" pageHeight="827" math="0" shadow="0">
      <root>
        <mxCell id="0" />
        <mxCell id="1" parent="0" />
      </root>
    </mxGraphModel>
  </diagram>
  <diagram id="NkJkEkzEYdFasb-z6xWu" name="二次探查">
    <mxGraphModel dx="1011" dy="638" grid="1" gridSize="10" guides="1" tooltips="1" connect="1" arrows="1" fold="1" page="1" pageScale="1" pageWidth="1169" pageHeight="827" math="0" shadow="0">
      <root>
        <mxCell id="0" />
        <mxCell id="1" parent="0" />
        <mxCell id="CLI9CFr9rGERSxdCDfwK-1" value="a" style="rounded=0;whiteSpace=wrap;html=1;fontFamily=JetBrains Mono;fontSource=https%3A%2F%2Ffonts.googleapis.com%2Fcss%3Ffamily%3DJetBrains%2BMono;fontSize=16;" parent="1" vertex="1">
          <mxGeometry x="320" y="160" width="80" height="40" as="geometry" />
        </mxCell>
        <mxCell id="CLI9CFr9rGERSxdCDfwK-2" value="1" style="rounded=0;whiteSpace=wrap;html=1;fontFamily=JetBrains Mono;fontSource=https%3A%2F%2Ffonts.googleapis.com%2Fcss%3Ffamily%3DJetBrains%2BMono;fontSize=16;" parent="1" vertex="1">
          <mxGeometry x="400" y="160" width="80" height="40" as="geometry" />
        </mxCell>
        <mxCell id="CLI9CFr9rGERSxdCDfwK-3" value="00" style="text;html=1;align=center;verticalAlign=middle;whiteSpace=wrap;rounded=0;fontFamily=JetBrains Mono;fontSource=https%3A%2F%2Ffonts.googleapis.com%2Fcss%3Ffamily%3DJetBrains%2BMono;fontSize=16;" parent="1" vertex="1">
          <mxGeometry x="280" y="160" width="40" height="40" as="geometry" />
        </mxCell>
        <mxCell id="CLI9CFr9rGERSxdCDfwK-4" value="b" style="rounded=0;whiteSpace=wrap;html=1;fontFamily=JetBrains Mono;fontSource=https%3A%2F%2Ffonts.googleapis.com%2Fcss%3Ffamily%3DJetBrains%2BMono;fontSize=16;" parent="1" vertex="1">
          <mxGeometry x="320" y="200" width="80" height="40" as="geometry" />
        </mxCell>
        <mxCell id="CLI9CFr9rGERSxdCDfwK-5" value="2" style="rounded=0;whiteSpace=wrap;html=1;fontFamily=JetBrains Mono;fontSource=https%3A%2F%2Ffonts.googleapis.com%2Fcss%3Ffamily%3DJetBrains%2BMono;fontSize=16;" parent="1" vertex="1">
          <mxGeometry x="400" y="200" width="80" height="40" as="geometry" />
        </mxCell>
        <mxCell id="CLI9CFr9rGERSxdCDfwK-6" value="01" style="text;html=1;align=center;verticalAlign=middle;whiteSpace=wrap;rounded=0;fontFamily=JetBrains Mono;fontSource=https%3A%2F%2Ffonts.googleapis.com%2Fcss%3Ffamily%3DJetBrains%2BMono;fontSize=16;" parent="1" vertex="1">
          <mxGeometry x="280" y="200" width="40" height="40" as="geometry" />
        </mxCell>
        <mxCell id="CLI9CFr9rGERSxdCDfwK-7" value="d" style="rounded=0;whiteSpace=wrap;html=1;fontFamily=JetBrains Mono;fontSource=https%3A%2F%2Ffonts.googleapis.com%2Fcss%3Ffamily%3DJetBrains%2BMono;fontSize=16;" parent="1" vertex="1">
          <mxGeometry x="320" y="240" width="80" height="40" as="geometry" />
        </mxCell>
        <mxCell id="CLI9CFr9rGERSxdCDfwK-8" value="4" style="rounded=0;whiteSpace=wrap;html=1;fontFamily=JetBrains Mono;fontSource=https%3A%2F%2Ffonts.googleapis.com%2Fcss%3Ffamily%3DJetBrains%2BMono;fontSize=16;" parent="1" vertex="1">
          <mxGeometry x="400" y="240" width="80" height="40" as="geometry" />
        </mxCell>
        <mxCell id="CLI9CFr9rGERSxdCDfwK-9" value="02" style="text;html=1;align=center;verticalAlign=middle;whiteSpace=wrap;rounded=0;fontFamily=JetBrains Mono;fontSource=https%3A%2F%2Ffonts.googleapis.com%2Fcss%3Ffamily%3DJetBrains%2BMono;fontSize=16;" parent="1" vertex="1">
          <mxGeometry x="280" y="240" width="40" height="40" as="geometry" />
        </mxCell>
        <mxCell id="CLI9CFr9rGERSxdCDfwK-10" value="m" style="rounded=0;whiteSpace=wrap;html=1;fontFamily=JetBrains Mono;fontSource=https%3A%2F%2Ffonts.googleapis.com%2Fcss%3Ffamily%3DJetBrains%2BMono;fontSize=16;" parent="1" vertex="1">
          <mxGeometry x="320" y="280" width="80" height="40" as="geometry" />
        </mxCell>
        <mxCell id="CLI9CFr9rGERSxdCDfwK-11" value="128" style="rounded=0;whiteSpace=wrap;html=1;fontFamily=JetBrains Mono;fontSource=https%3A%2F%2Ffonts.googleapis.com%2Fcss%3Ffamily%3DJetBrains%2BMono;fontSize=16;" parent="1" vertex="1">
          <mxGeometry x="400" y="280" width="80" height="40" as="geometry" />
        </mxCell>
        <mxCell id="CLI9CFr9rGERSxdCDfwK-12" value="03" style="text;html=1;align=center;verticalAlign=middle;whiteSpace=wrap;rounded=0;fontFamily=JetBrains Mono;fontSource=https%3A%2F%2Ffonts.googleapis.com%2Fcss%3Ffamily%3DJetBrains%2BMono;fontSize=16;" parent="1" vertex="1">
          <mxGeometry x="280" y="280" width="40" height="40" as="geometry" />
        </mxCell>
        <mxCell id="CLI9CFr9rGERSxdCDfwK-13" value="c" style="rounded=0;whiteSpace=wrap;html=1;fontFamily=JetBrains Mono;fontSource=https%3A%2F%2Ffonts.googleapis.com%2Fcss%3Ffamily%3DJetBrains%2BMono;fontSize=16;" parent="1" vertex="1">
          <mxGeometry x="320" y="320" width="80" height="40" as="geometry" />
        </mxCell>
        <mxCell id="CLI9CFr9rGERSxdCDfwK-14" value="3" style="rounded=0;whiteSpace=wrap;html=1;fontFamily=JetBrains Mono;fontSource=https%3A%2F%2Ffonts.googleapis.com%2Fcss%3Ffamily%3DJetBrains%2BMono;fontSize=16;" parent="1" vertex="1">
          <mxGeometry x="400" y="320" width="80" height="40" as="geometry" />
        </mxCell>
        <mxCell id="CLI9CFr9rGERSxdCDfwK-15" value="04" style="text;html=1;align=center;verticalAlign=middle;whiteSpace=wrap;rounded=0;fontFamily=JetBrains Mono;fontSource=https%3A%2F%2Ffonts.googleapis.com%2Fcss%3Ffamily%3DJetBrains%2BMono;fontSize=16;" parent="1" vertex="1">
          <mxGeometry x="280" y="320" width="40" height="40" as="geometry" />
        </mxCell>
        <mxCell id="CLI9CFr9rGERSxdCDfwK-16" value="x" style="rounded=0;whiteSpace=wrap;html=1;fontFamily=JetBrains Mono;fontSource=https%3A%2F%2Ffonts.googleapis.com%2Fcss%3Ffamily%3DJetBrains%2BMono;fontSize=16;" parent="1" vertex="1">
          <mxGeometry x="320" y="360" width="80" height="40" as="geometry" />
        </mxCell>
        <mxCell id="CLI9CFr9rGERSxdCDfwK-17" value="67" style="rounded=0;whiteSpace=wrap;html=1;fontFamily=JetBrains Mono;fontSource=https%3A%2F%2Ffonts.googleapis.com%2Fcss%3Ffamily%3DJetBrains%2BMono;fontSize=16;" parent="1" vertex="1">
          <mxGeometry x="400" y="360" width="80" height="40" as="geometry" />
        </mxCell>
        <mxCell id="CLI9CFr9rGERSxdCDfwK-18" value="05" style="text;html=1;align=center;verticalAlign=middle;whiteSpace=wrap;rounded=0;fontFamily=JetBrains Mono;fontSource=https%3A%2F%2Ffonts.googleapis.com%2Fcss%3Ffamily%3DJetBrains%2BMono;fontSize=16;" parent="1" vertex="1">
          <mxGeometry x="280" y="360" width="40" height="40" as="geometry" />
        </mxCell>
        <mxCell id="CLI9CFr9rGERSxdCDfwK-19" value="" style="rounded=0;whiteSpace=wrap;html=1;fontFamily=JetBrains Mono;fontSource=https%3A%2F%2Ffonts.googleapis.com%2Fcss%3Ffamily%3DJetBrains%2BMono;fontSize=16;" parent="1" vertex="1">
          <mxGeometry x="320" y="400" width="80" height="40" as="geometry" />
        </mxCell>
        <mxCell id="CLI9CFr9rGERSxdCDfwK-20" value="" style="rounded=0;whiteSpace=wrap;html=1;fontFamily=JetBrains Mono;fontSource=https%3A%2F%2Ffonts.googleapis.com%2Fcss%3Ffamily%3DJetBrains%2BMono;fontSize=16;" parent="1" vertex="1">
          <mxGeometry x="400" y="400" width="80" height="40" as="geometry" />
        </mxCell>
        <mxCell id="CLI9CFr9rGERSxdCDfwK-21" value="06" style="text;html=1;align=center;verticalAlign=middle;whiteSpace=wrap;rounded=0;fontFamily=JetBrains Mono;fontSource=https%3A%2F%2Ffonts.googleapis.com%2Fcss%3Ffamily%3DJetBrains%2BMono;fontSize=16;" parent="1" vertex="1">
          <mxGeometry x="280" y="400" width="40" height="40" as="geometry" />
        </mxCell>
        <mxCell id="CLI9CFr9rGERSxdCDfwK-22" value="e" style="rounded=0;whiteSpace=wrap;html=1;fontFamily=JetBrains Mono;fontSource=https%3A%2F%2Ffonts.googleapis.com%2Fcss%3Ffamily%3DJetBrains%2BMono;fontSize=16;fontColor=#FF8000;" parent="1" vertex="1">
          <mxGeometry x="320" y="440" width="80" height="40" as="geometry" />
        </mxCell>
        <mxCell id="CLI9CFr9rGERSxdCDfwK-23" value="5" style="rounded=0;whiteSpace=wrap;html=1;fontFamily=JetBrains Mono;fontSource=https%3A%2F%2Ffonts.googleapis.com%2Fcss%3Ffamily%3DJetBrains%2BMono;fontSize=16;fontColor=#FF8000;" parent="1" vertex="1">
          <mxGeometry x="400" y="440" width="80" height="40" as="geometry" />
        </mxCell>
        <mxCell id="CLI9CFr9rGERSxdCDfwK-24" value="07" style="text;html=1;align=center;verticalAlign=middle;whiteSpace=wrap;rounded=0;fontFamily=JetBrains Mono;fontSource=https%3A%2F%2Ffonts.googleapis.com%2Fcss%3Ffamily%3DJetBrains%2BMono;fontSize=16;" parent="1" vertex="1">
          <mxGeometry x="280" y="440" width="40" height="40" as="geometry" />
        </mxCell>
        <mxCell id="CLI9CFr9rGERSxdCDfwK-25" value="" style="endArrow=classic;html=1;rounded=0;dashed=1;fontColor=#000000;strokeColor=#000000;fontSize=16;fontFamily=JetBrains Mono;fontSource=https%3A%2F%2Ffonts.googleapis.com%2Fcss%3Ffamily%3DJetBrains%2BMono;" parent="1" edge="1">
          <mxGeometry width="50" height="50" relative="1" as="geometry">
            <mxPoint x="150" y="300" as="sourcePoint" />
            <mxPoint x="270" y="300" as="targetPoint" />
          </mxGeometry>
        </mxCell>
        <mxCell id="CLI9CFr9rGERSxdCDfwK-26" style="edgeStyle=orthogonalEdgeStyle;rounded=0;orthogonalLoop=1;jettySize=auto;html=1;exitX=0.5;exitY=1;exitDx=0;exitDy=0;entryX=0;entryY=0.5;entryDx=0;entryDy=0;curved=1;fontColor=#000000;strokeColor=#000000;fontSize=16;fontFamily=JetBrains Mono;fontSource=https%3A%2F%2Ffonts.googleapis.com%2Fcss%3Ffamily%3DJetBrains%2BMono;" parent="1" source="CLI9CFr9rGERSxdCDfwK-27" target="CLI9CFr9rGERSxdCDfwK-24" edge="1">
          <mxGeometry relative="1" as="geometry" />
        </mxCell>
        <mxCell id="CLI9CFr9rGERSxdCDfwK-27" value="e: 5" style="text;html=1;align=center;verticalAlign=middle;whiteSpace=wrap;rounded=0;fontFamily=JetBrains Mono;fontSource=https%3A%2F%2Ffonts.googleapis.com%2Fcss%3Ffamily%3DJetBrains%2BMono;fontSize=16;fontColor=#FF8000;" parent="1" vertex="1">
          <mxGeometry x="180" y="260" width="60" height="40" as="geometry" />
        </mxCell>
        <mxCell id="CLI9CFr9rGERSxdCDfwK-28" value="3+1^2=4 占用" style="text;html=1;align=center;verticalAlign=middle;whiteSpace=wrap;rounded=0;fontFamily=JetBrains Mono;fontSource=https%3A%2F%2Ffonts.googleapis.com%2Fcss%3Ffamily%3DJetBrains%2BMono;fontSize=16;fontColor=#000000;" parent="1" vertex="1">
          <mxGeometry x="80" y="360" width="120" height="40" as="geometry" />
        </mxCell>
        <mxCell id="CLI9CFr9rGERSxdCDfwK-29" value="3+2^2=7 空闲" style="text;html=1;align=center;verticalAlign=middle;whiteSpace=wrap;rounded=0;fontFamily=JetBrains Mono;fontSource=https%3A%2F%2Ffonts.googleapis.com%2Fcss%3Ffamily%3DJetBrains%2BMono;fontSize=16;fontColor=#000000;" parent="1" vertex="1">
          <mxGeometry x="80" y="400" width="120" height="40" as="geometry" />
        </mxCell>
      </root>
    </mxGraphModel>
  </diagram>
  <diagram id="o-Dm-ZS9ciChd2rHIgH_" name="异步task模型">
    <mxGraphModel dx="1011" dy="638" grid="1" gridSize="10" guides="1" tooltips="1" connect="1" arrows="1" fold="1" page="1" pageScale="1" pageWidth="1169" pageHeight="827" math="0" shadow="0">
      <root>
        <mxCell id="0" />
        <mxCell id="1" parent="0" />
        <mxCell id="Ko-o0UOO98Gh2CAY59_Z-38" value="" style="rounded=0;whiteSpace=wrap;html=1;fillColor=#f8cecc;strokeColor=#b85450;fontSize=16;fontFamily=JetBrains Mono;fontSource=https%3A%2F%2Ffonts.googleapis.com%2Fcss%3Ffamily%3DJetBrains%2BMono;" vertex="1" parent="1">
          <mxGeometry x="160" y="40" width="520" height="460" as="geometry" />
        </mxCell>
        <mxCell id="Ko-o0UOO98Gh2CAY59_Z-10" value="" style="rounded=0;whiteSpace=wrap;html=1;fillColor=#d5e8d4;strokeColor=#82b366;fontSize=16;fontFamily=JetBrains Mono;fontSource=https%3A%2F%2Ffonts.googleapis.com%2Fcss%3Ffamily%3DJetBrains%2BMono;" vertex="1" parent="1">
          <mxGeometry x="200" y="80" width="440" height="160" as="geometry" />
        </mxCell>
        <mxCell id="Ko-o0UOO98Gh2CAY59_Z-11" value="&lt;p style=&quot;font-size: 16px;&quot;&gt;协程&amp;nbsp;&lt;span style=&quot;color: rgb(13, 13, 13); text-align: left; white-space-collapse: preserve; background-color: initial; font-size: 16px;&quot;&gt;task&lt;/span&gt;&lt;/p&gt;" style="text;html=1;align=center;verticalAlign=middle;whiteSpace=wrap;rounded=0;fontSize=16;fontFamily=JetBrains Mono;fontSource=https%3A%2F%2Ffonts.googleapis.com%2Fcss%3Ffamily%3DJetBrains%2BMono;" vertex="1" parent="1">
          <mxGeometry x="200" y="210" width="100" height="30" as="geometry" />
        </mxCell>
        <mxCell id="Ko-o0UOO98Gh2CAY59_Z-14" value="&lt;span style=&quot;caret-color: rgb(51, 51, 51); color: rgb(51, 51, 51); font-size: 16px; orphans: 4; text-align: start; white-space-collapse: preserve; text-size-adjust: auto; background-color: rgb(255, 255, 255);&quot;&gt;Future&lt;/span&gt;" style="rounded=0;whiteSpace=wrap;html=1;fontFamily=JetBrains Mono;fontSource=https%3A%2F%2Ffonts.googleapis.com%2Fcss%3Ffamily%3DJetBrains%2BMono;fontSize=16;" vertex="1" parent="1">
          <mxGeometry x="220" y="120" width="100" height="60" as="geometry" />
        </mxCell>
        <mxCell id="Ko-o0UOO98Gh2CAY59_Z-22" value="&lt;span style=&quot;caret-color: rgb(51, 51, 51); color: rgb(51, 51, 51); font-size: 16px; orphans: 4; text-align: start; white-space-collapse: preserve; text-size-adjust: auto; background-color: rgb(255, 255, 255);&quot;&gt;Future&lt;/span&gt;" style="rounded=0;whiteSpace=wrap;html=1;fontFamily=JetBrains Mono;fontSource=https%3A%2F%2Ffonts.googleapis.com%2Fcss%3Ffamily%3DJetBrains%2BMono;fontSize=16;" vertex="1" parent="1">
          <mxGeometry x="320" y="120" width="100" height="60" as="geometry" />
        </mxCell>
        <mxCell id="Ko-o0UOO98Gh2CAY59_Z-23" value="&lt;span style=&quot;caret-color: rgb(51, 51, 51); color: rgb(51, 51, 51); font-size: 16px; orphans: 4; text-align: start; white-space-collapse: preserve; text-size-adjust: auto; background-color: rgb(255, 255, 255);&quot;&gt;Future&lt;/span&gt;" style="rounded=0;whiteSpace=wrap;html=1;fontFamily=JetBrains Mono;fontSource=https%3A%2F%2Ffonts.googleapis.com%2Fcss%3Ffamily%3DJetBrains%2BMono;fontSize=16;" vertex="1" parent="1">
          <mxGeometry x="420" y="120" width="100" height="60" as="geometry" />
        </mxCell>
        <mxCell id="Ko-o0UOO98Gh2CAY59_Z-24" value="&lt;span style=&quot;caret-color: rgb(51, 51, 51); color: rgb(51, 51, 51); font-size: 16px; orphans: 4; text-align: start; white-space-collapse: preserve; text-size-adjust: auto; background-color: rgb(255, 255, 255);&quot;&gt;。。。&lt;/span&gt;" style="rounded=0;whiteSpace=wrap;html=1;fontFamily=JetBrains Mono;fontSource=https%3A%2F%2Ffonts.googleapis.com%2Fcss%3Ffamily%3DJetBrains%2BMono;fontSize=16;" vertex="1" parent="1">
          <mxGeometry x="520" y="120" width="100" height="60" as="geometry" />
        </mxCell>
        <mxCell id="Ko-o0UOO98Gh2CAY59_Z-26" value="" style="rounded=0;whiteSpace=wrap;html=1;fillColor=#d5e8d4;strokeColor=#82b366;fontSize=16;fontFamily=JetBrains Mono;fontSource=https%3A%2F%2Ffonts.googleapis.com%2Fcss%3Ffamily%3DJetBrains%2BMono;" vertex="1" parent="1">
          <mxGeometry x="200" y="280" width="140" height="160" as="geometry" />
        </mxCell>
        <mxCell id="Ko-o0UOO98Gh2CAY59_Z-27" value="&lt;p style=&quot;font-size: 16px;&quot;&gt;协程&amp;nbsp;&lt;span style=&quot;color: rgb(13, 13, 13); text-align: left; white-space-collapse: preserve; background-color: initial; font-size: 16px;&quot;&gt;task&lt;/span&gt;&lt;/p&gt;" style="text;html=1;align=center;verticalAlign=middle;whiteSpace=wrap;rounded=0;fontSize=16;fontFamily=JetBrains Mono;fontSource=https%3A%2F%2Ffonts.googleapis.com%2Fcss%3Ffamily%3DJetBrains%2BMono;" vertex="1" parent="1">
          <mxGeometry x="200" y="410" width="100" height="30" as="geometry" />
        </mxCell>
        <mxCell id="Ko-o0UOO98Gh2CAY59_Z-28" value="&lt;span style=&quot;caret-color: rgb(51, 51, 51); color: rgb(51, 51, 51); font-size: 16px; orphans: 4; text-align: start; white-space-collapse: preserve; text-size-adjust: auto; background-color: rgb(255, 255, 255);&quot;&gt;Future&lt;/span&gt;" style="rounded=0;whiteSpace=wrap;html=1;fontFamily=JetBrains Mono;fontSource=https%3A%2F%2Ffonts.googleapis.com%2Fcss%3Ffamily%3DJetBrains%2BMono;fontSize=16;" vertex="1" parent="1">
          <mxGeometry x="220" y="320" width="100" height="60" as="geometry" />
        </mxCell>
        <mxCell id="Ko-o0UOO98Gh2CAY59_Z-32" value="" style="rounded=0;whiteSpace=wrap;html=1;fillColor=#d5e8d4;strokeColor=#82b366;fontSize=16;fontFamily=JetBrains Mono;fontSource=https%3A%2F%2Ffonts.googleapis.com%2Fcss%3Ffamily%3DJetBrains%2BMono;" vertex="1" parent="1">
          <mxGeometry x="350" y="280" width="140" height="160" as="geometry" />
        </mxCell>
        <mxCell id="Ko-o0UOO98Gh2CAY59_Z-33" value="&lt;p style=&quot;font-size: 16px;&quot;&gt;协程&amp;nbsp;&lt;span style=&quot;color: rgb(13, 13, 13); text-align: left; white-space-collapse: preserve; background-color: initial; font-size: 16px;&quot;&gt;task&lt;/span&gt;&lt;/p&gt;" style="text;html=1;align=center;verticalAlign=middle;whiteSpace=wrap;rounded=0;fontSize=16;fontFamily=JetBrains Mono;fontSource=https%3A%2F%2Ffonts.googleapis.com%2Fcss%3Ffamily%3DJetBrains%2BMono;" vertex="1" parent="1">
          <mxGeometry x="350" y="410" width="100" height="30" as="geometry" />
        </mxCell>
        <mxCell id="Ko-o0UOO98Gh2CAY59_Z-34" value="&lt;span style=&quot;caret-color: rgb(51, 51, 51); color: rgb(51, 51, 51); font-size: 16px; orphans: 4; text-align: start; white-space-collapse: preserve; text-size-adjust: auto; background-color: rgb(255, 255, 255);&quot;&gt;Future&lt;/span&gt;" style="rounded=0;whiteSpace=wrap;html=1;fontFamily=JetBrains Mono;fontSource=https%3A%2F%2Ffonts.googleapis.com%2Fcss%3Ffamily%3DJetBrains%2BMono;fontSize=16;" vertex="1" parent="1">
          <mxGeometry x="370" y="320" width="100" height="60" as="geometry" />
        </mxCell>
        <mxCell id="Ko-o0UOO98Gh2CAY59_Z-35" value="。。。" style="rounded=0;whiteSpace=wrap;html=1;fillColor=#d5e8d4;strokeColor=#82b366;fontSize=16;fontFamily=JetBrains Mono;fontSource=https%3A%2F%2Ffonts.googleapis.com%2Fcss%3Ffamily%3DJetBrains%2BMono;" vertex="1" parent="1">
          <mxGeometry x="500" y="280" width="140" height="160" as="geometry" />
        </mxCell>
        <mxCell id="Ko-o0UOO98Gh2CAY59_Z-39" value="执行器 executor" style="text;html=1;align=center;verticalAlign=middle;whiteSpace=wrap;rounded=0;fontSize=16;fontFamily=JetBrains Mono;fontSource=https%3A%2F%2Ffonts.googleapis.com%2Fcss%3Ffamily%3DJetBrains%2BMono;" vertex="1" parent="1">
          <mxGeometry x="160" y="470" width="150" height="30" as="geometry" />
        </mxCell>
      </root>
    </mxGraphModel>
  </diagram>
  <diagram id="JAee1GyJy8NPxYlMnbfa" name="特征对象">
    <mxGraphModel dx="841" dy="626" grid="1" gridSize="10" guides="1" tooltips="1" connect="1" arrows="1" fold="1" page="1" pageScale="1" pageWidth="1169" pageHeight="827" math="0" shadow="0">
      <root>
        <mxCell id="0" />
        <mxCell id="1" parent="0" />
        <mxCell id="41xBQkkzNVXENpJH_4RF-7" value="animals" style="swimlane;fontStyle=0;childLayout=stackLayout;horizontal=1;startSize=30;horizontalStack=0;resizeParent=1;resizeParentMax=0;resizeLast=0;collapsible=1;marginBottom=0;whiteSpace=wrap;html=1;fillColor=#d5e8d4;strokeColor=#82b366;fontFamily=JetBrains Mono;fontSize=16;fontSource=https%3A%2F%2Ffonts.googleapis.com%2Fcss%3Ffamily%3DJetBrains%2BMono;" parent="1" vertex="1">
          <mxGeometry x="40" y="72.5" width="160" height="120" as="geometry">
            <mxRectangle x="40" y="200" width="110" height="30" as="alternateBounds" />
          </mxGeometry>
        </mxCell>
        <mxCell id="41xBQkkzNVXENpJH_4RF-8" value="trait objects" style="text;strokeColor=none;fillColor=none;align=left;verticalAlign=middle;spacingLeft=4;spacingRight=4;overflow=hidden;points=[[0,0.5],[1,0.5]];portConstraint=eastwest;rotatable=0;whiteSpace=wrap;html=1;fontFamily=JetBrains Mono;fontSize=16;fontSource=https%3A%2F%2Ffonts.googleapis.com%2Fcss%3Ffamily%3DJetBrains%2BMono;" parent="41xBQkkzNVXENpJH_4RF-7" vertex="1">
          <mxGeometry y="30" width="160" height="30" as="geometry" />
        </mxCell>
        <mxCell id="41xBQkkzNVXENpJH_4RF-9" value="trait objects" style="text;strokeColor=none;fillColor=none;align=left;verticalAlign=middle;spacingLeft=4;spacingRight=4;overflow=hidden;points=[[0,0.5],[1,0.5]];portConstraint=eastwest;rotatable=0;whiteSpace=wrap;html=1;fontFamily=JetBrains Mono;fontSize=16;fontSource=https%3A%2F%2Ffonts.googleapis.com%2Fcss%3Ffamily%3DJetBrains%2BMono;" parent="41xBQkkzNVXENpJH_4RF-7" vertex="1">
          <mxGeometry y="60" width="160" height="30" as="geometry" />
        </mxCell>
        <mxCell id="41xBQkkzNVXENpJH_4RF-12" value="trait objects" style="text;strokeColor=none;fillColor=none;align=left;verticalAlign=middle;spacingLeft=4;spacingRight=4;overflow=hidden;points=[[0,0.5],[1,0.5]];portConstraint=eastwest;rotatable=0;whiteSpace=wrap;html=1;fontFamily=JetBrains Mono;fontSize=16;fontSource=https%3A%2F%2Ffonts.googleapis.com%2Fcss%3Ffamily%3DJetBrains%2BMono;" parent="41xBQkkzNVXENpJH_4RF-7" vertex="1">
          <mxGeometry y="90" width="160" height="30" as="geometry" />
        </mxCell>
        <mxCell id="41xBQkkzNVXENpJH_4RF-14" value="" style="rounded=0;whiteSpace=wrap;html=1;fillColor=#f8cecc;strokeColor=#b85450;fontFamily=JetBrains Mono;fontSize=16;fontSource=https%3A%2F%2Ffonts.googleapis.com%2Fcss%3Ffamily%3DJetBrains%2BMono;" parent="1" vertex="1">
          <mxGeometry x="260" y="42.5" width="80" height="60" as="geometry" />
        </mxCell>
        <mxCell id="41xBQkkzNVXENpJH_4RF-21" style="edgeStyle=orthogonalEdgeStyle;rounded=0;orthogonalLoop=1;jettySize=auto;html=1;exitX=1;exitY=0.5;exitDx=0;exitDy=0;fontFamily=JetBrains Mono;fontSize=16;fontSource=https%3A%2F%2Ffonts.googleapis.com%2Fcss%3Ffamily%3DJetBrains%2BMono;" parent="1" source="41xBQkkzNVXENpJH_4RF-15" target="41xBQkkzNVXENpJH_4RF-18" edge="1">
          <mxGeometry relative="1" as="geometry" />
        </mxCell>
        <mxCell id="41xBQkkzNVXENpJH_4RF-15" value="&lt;div style=&quot;font-size: 16px; line-height: 27px; white-space: pre;&quot;&gt;数据指针&lt;/div&gt;" style="text;html=1;align=center;verticalAlign=middle;whiteSpace=wrap;rounded=0;fontFamily=JetBrains Mono;fontSize=16;fontColor=default;labelBackgroundColor=none;fontSource=https%3A%2F%2Ffonts.googleapis.com%2Fcss%3Ffamily%3DJetBrains%2BMono;" parent="1" vertex="1">
          <mxGeometry x="260" y="42.5" width="80" height="30" as="geometry" />
        </mxCell>
        <mxCell id="41xBQkkzNVXENpJH_4RF-16" value="&lt;div style=&quot;font-size: 16px; line-height: 27px; white-space: pre;&quot;&gt;&lt;div style=&quot;line-height: 27px; font-size: 16px;&quot;&gt;虚表指针&lt;/div&gt;&lt;/div&gt;" style="text;html=1;align=center;verticalAlign=middle;whiteSpace=wrap;rounded=0;fontFamily=JetBrains Mono;fontSize=16;labelBackgroundColor=none;fontSource=https%3A%2F%2Ffonts.googleapis.com%2Fcss%3Ffamily%3DJetBrains%2BMono;" parent="1" vertex="1">
          <mxGeometry x="260" y="72.5" width="80" height="30" as="geometry" />
        </mxCell>
        <mxCell id="41xBQkkzNVXENpJH_4RF-17" style="edgeStyle=orthogonalEdgeStyle;rounded=0;orthogonalLoop=1;jettySize=auto;html=1;exitX=1;exitY=0.5;exitDx=0;exitDy=0;fontFamily=JetBrains Mono;fontSize=16;fontSource=https%3A%2F%2Ffonts.googleapis.com%2Fcss%3Ffamily%3DJetBrains%2BMono;" parent="1" source="41xBQkkzNVXENpJH_4RF-8" target="41xBQkkzNVXENpJH_4RF-14" edge="1">
          <mxGeometry relative="1" as="geometry" />
        </mxCell>
        <mxCell id="41xBQkkzNVXENpJH_4RF-18" value="Dog" style="rounded=0;whiteSpace=wrap;html=1;fillColor=#dae8fc;strokeColor=#6c8ebf;fontFamily=JetBrains Mono;fontSize=16;fontSource=https%3A%2F%2Ffonts.googleapis.com%2Fcss%3Ffamily%3DJetBrains%2BMono;" parent="1" vertex="1">
          <mxGeometry x="390" y="40" width="60" height="35" as="geometry" />
        </mxCell>
        <mxCell id="41xBQkkzNVXENpJH_4RF-23" value="" style="rounded=0;whiteSpace=wrap;html=1;fillColor=#ffe6cc;strokeColor=#d79b00;fontSize=16;fontFamily=JetBrains Mono;fontSource=https%3A%2F%2Ffonts.googleapis.com%2Fcss%3Ffamily%3DJetBrains%2BMono;" parent="1" vertex="1">
          <mxGeometry x="360" y="102.5" width="200" height="60" as="geometry" />
        </mxCell>
        <mxCell id="41xBQkkzNVXENpJH_4RF-24" value="Dog 的虚表" style="text;html=1;align=center;verticalAlign=middle;whiteSpace=wrap;rounded=0;fontSize=16;fontFamily=JetBrains Mono;fontSource=https%3A%2F%2Ffonts.googleapis.com%2Fcss%3Ffamily%3DJetBrains%2BMono;" parent="1" vertex="1">
          <mxGeometry x="360" y="102.5" width="100" height="30" as="geometry" />
        </mxCell>
        <mxCell id="41xBQkkzNVXENpJH_4RF-25" value="&lt;font style=&quot;font-size: 16px;&quot; data-font-src=&quot;https://fonts.googleapis.com/css?family=JetBrains+Mono&quot;&gt;Dog&lt;span style=&quot;white-space: pre;&quot;&gt;::&lt;/span&gt;speak 指针&lt;/font&gt;" style="text;html=1;align=center;verticalAlign=middle;whiteSpace=wrap;rounded=0;fontSize=16;fontFamily=JetBrains Mono;labelBackgroundColor=none;fontSource=https%3A%2F%2Ffonts.googleapis.com%2Fcss%3Ffamily%3DJetBrains%2BMono;" parent="1" vertex="1">
          <mxGeometry x="360" y="132.5" width="200" height="30" as="geometry" />
        </mxCell>
        <mxCell id="41xBQkkzNVXENpJH_4RF-32" value="" style="rounded=0;whiteSpace=wrap;html=1;fillColor=#f8cecc;strokeColor=#b85450;fontFamily=JetBrains Mono;fontSize=16;fontSource=https%3A%2F%2Ffonts.googleapis.com%2Fcss%3Ffamily%3DJetBrains%2BMono;" parent="1" vertex="1">
          <mxGeometry x="260" y="172.5" width="80" height="60" as="geometry" />
        </mxCell>
        <mxCell id="41xBQkkzNVXENpJH_4RF-40" style="edgeStyle=orthogonalEdgeStyle;rounded=0;orthogonalLoop=1;jettySize=auto;html=1;exitX=0.5;exitY=0;exitDx=0;exitDy=0;entryX=0;entryY=0.25;entryDx=0;entryDy=0;fontFamily=JetBrains Mono;fontSize=16;fontSource=https%3A%2F%2Ffonts.googleapis.com%2Fcss%3Ffamily%3DJetBrains%2BMono;" parent="1" source="41xBQkkzNVXENpJH_4RF-33" target="41xBQkkzNVXENpJH_4RF-25" edge="1">
          <mxGeometry relative="1" as="geometry" />
        </mxCell>
        <mxCell id="41xBQkkzNVXENpJH_4RF-33" value="&lt;div style=&quot;font-size: 16px; line-height: 27px; white-space: pre;&quot;&gt;虚表指针&lt;br style=&quot;font-size: 16px;&quot;&gt;&lt;/div&gt;" style="text;html=1;align=center;verticalAlign=middle;whiteSpace=wrap;rounded=0;fontFamily=JetBrains Mono;fontSize=16;fontColor=default;labelBackgroundColor=none;fontSource=https%3A%2F%2Ffonts.googleapis.com%2Fcss%3Ffamily%3DJetBrains%2BMono;" parent="1" vertex="1">
          <mxGeometry x="260" y="172.5" width="80" height="30" as="geometry" />
        </mxCell>
        <mxCell id="41xBQkkzNVXENpJH_4RF-41" style="edgeStyle=orthogonalEdgeStyle;rounded=0;orthogonalLoop=1;jettySize=auto;html=1;exitX=1;exitY=0.5;exitDx=0;exitDy=0;entryX=0;entryY=0.5;entryDx=0;entryDy=0;fontFamily=JetBrains Mono;fontSize=16;fontSource=https%3A%2F%2Ffonts.googleapis.com%2Fcss%3Ffamily%3DJetBrains%2BMono;" parent="1" source="41xBQkkzNVXENpJH_4RF-34" target="41xBQkkzNVXENpJH_4RF-36" edge="1">
          <mxGeometry relative="1" as="geometry" />
        </mxCell>
        <mxCell id="41xBQkkzNVXENpJH_4RF-34" value="&lt;div style=&quot;font-size: 16px; line-height: 27px; white-space: pre;&quot;&gt;&lt;div style=&quot;line-height: 27px; font-size: 16px;&quot;&gt;数据指针&lt;br style=&quot;font-size: 16px;&quot;&gt;&lt;/div&gt;&lt;/div&gt;" style="text;html=1;align=center;verticalAlign=middle;whiteSpace=wrap;rounded=0;fontFamily=JetBrains Mono;fontSize=16;labelBackgroundColor=none;fontSource=https%3A%2F%2Ffonts.googleapis.com%2Fcss%3Ffamily%3DJetBrains%2BMono;" parent="1" vertex="1">
          <mxGeometry x="260" y="202.5" width="80" height="30" as="geometry" />
        </mxCell>
        <mxCell id="41xBQkkzNVXENpJH_4RF-35" style="edgeStyle=orthogonalEdgeStyle;rounded=0;orthogonalLoop=1;jettySize=auto;html=1;exitX=1;exitY=0.5;exitDx=0;exitDy=0;entryX=0;entryY=0.25;entryDx=0;entryDy=0;fontFamily=JetBrains Mono;fontSize=16;fontSource=https%3A%2F%2Ffonts.googleapis.com%2Fcss%3Ffamily%3DJetBrains%2BMono;" parent="1" source="41xBQkkzNVXENpJH_4RF-9" target="41xBQkkzNVXENpJH_4RF-34" edge="1">
          <mxGeometry relative="1" as="geometry" />
        </mxCell>
        <mxCell id="41xBQkkzNVXENpJH_4RF-36" value="Dog" style="rounded=0;whiteSpace=wrap;html=1;fillColor=#dae8fc;strokeColor=#6c8ebf;fontFamily=JetBrains Mono;fontSize=16;fontSource=https%3A%2F%2Ffonts.googleapis.com%2Fcss%3Ffamily%3DJetBrains%2BMono;" parent="1" vertex="1">
          <mxGeometry x="390" y="200" width="60" height="35" as="geometry" />
        </mxCell>
        <mxCell id="41xBQkkzNVXENpJH_4RF-43" style="edgeStyle=orthogonalEdgeStyle;rounded=0;orthogonalLoop=1;jettySize=auto;html=1;exitX=0.5;exitY=1;exitDx=0;exitDy=0;entryX=0.006;entryY=0.647;entryDx=0;entryDy=0;entryPerimeter=0;fontFamily=JetBrains Mono;fontSize=16;fontSource=https%3A%2F%2Ffonts.googleapis.com%2Fcss%3Ffamily%3DJetBrains%2BMono;" parent="1" source="41xBQkkzNVXENpJH_4RF-16" target="41xBQkkzNVXENpJH_4RF-24" edge="1">
          <mxGeometry relative="1" as="geometry" />
        </mxCell>
        <mxCell id="41xBQkkzNVXENpJH_4RF-44" value="Cat" style="rounded=0;whiteSpace=wrap;html=1;fillColor=#dae8fc;strokeColor=#6c8ebf;fontFamily=JetBrains Mono;fontSize=16;fontSource=https%3A%2F%2Ffonts.googleapis.com%2Fcss%3Ffamily%3DJetBrains%2BMono;" parent="1" vertex="1">
          <mxGeometry x="220" y="270" width="60" height="35" as="geometry" />
        </mxCell>
        <mxCell id="41xBQkkzNVXENpJH_4RF-45" value="" style="rounded=0;whiteSpace=wrap;html=1;fillColor=#f8cecc;strokeColor=#b85450;fontFamily=JetBrains Mono;fontSize=16;fontSource=https%3A%2F%2Ffonts.googleapis.com%2Fcss%3Ffamily%3DJetBrains%2BMono;" parent="1" vertex="1">
          <mxGeometry x="40" y="272.5" width="80" height="60" as="geometry" />
        </mxCell>
        <mxCell id="41xBQkkzNVXENpJH_4RF-49" style="edgeStyle=orthogonalEdgeStyle;rounded=0;orthogonalLoop=1;jettySize=auto;html=1;exitX=1;exitY=0.5;exitDx=0;exitDy=0;fontFamily=JetBrains Mono;fontSize=16;fontSource=https%3A%2F%2Ffonts.googleapis.com%2Fcss%3Ffamily%3DJetBrains%2BMono;" parent="1" source="41xBQkkzNVXENpJH_4RF-46" target="41xBQkkzNVXENpJH_4RF-44" edge="1">
          <mxGeometry relative="1" as="geometry" />
        </mxCell>
        <mxCell id="41xBQkkzNVXENpJH_4RF-46" value="&lt;div style=&quot;font-size: 16px; line-height: 27px; white-space: pre;&quot;&gt;数据指针&lt;br style=&quot;font-size: 16px;&quot;&gt;&lt;/div&gt;" style="text;html=1;align=center;verticalAlign=middle;whiteSpace=wrap;rounded=0;fontFamily=JetBrains Mono;fontSize=16;fontColor=default;labelBackgroundColor=none;fontSource=https%3A%2F%2Ffonts.googleapis.com%2Fcss%3Ffamily%3DJetBrains%2BMono;" parent="1" vertex="1">
          <mxGeometry x="40" y="272.5" width="80" height="30" as="geometry" />
        </mxCell>
        <mxCell id="41xBQkkzNVXENpJH_4RF-53" style="edgeStyle=orthogonalEdgeStyle;rounded=0;orthogonalLoop=1;jettySize=auto;html=1;exitX=1;exitY=0.5;exitDx=0;exitDy=0;entryX=0;entryY=0.5;entryDx=0;entryDy=0;fontFamily=JetBrains Mono;fontSize=16;fontSource=https%3A%2F%2Ffonts.googleapis.com%2Fcss%3Ffamily%3DJetBrains%2BMono;" parent="1" source="41xBQkkzNVXENpJH_4RF-47" target="41xBQkkzNVXENpJH_4RF-52" edge="1">
          <mxGeometry relative="1" as="geometry" />
        </mxCell>
        <mxCell id="41xBQkkzNVXENpJH_4RF-47" value="&lt;div style=&quot;font-size: 16px; line-height: 27px; white-space: pre;&quot;&gt;&lt;div style=&quot;line-height: 27px; font-size: 16px;&quot;&gt;虚表指针&lt;br style=&quot;font-size: 16px;&quot;&gt;&lt;/div&gt;&lt;/div&gt;" style="text;html=1;align=center;verticalAlign=middle;whiteSpace=wrap;rounded=0;fontFamily=JetBrains Mono;fontSize=16;labelBackgroundColor=none;fontSource=https%3A%2F%2Ffonts.googleapis.com%2Fcss%3Ffamily%3DJetBrains%2BMono;" parent="1" vertex="1">
          <mxGeometry x="40" y="302.5" width="80" height="30" as="geometry" />
        </mxCell>
        <mxCell id="41xBQkkzNVXENpJH_4RF-48" style="edgeStyle=orthogonalEdgeStyle;rounded=0;orthogonalLoop=1;jettySize=auto;html=1;exitX=1;exitY=0.5;exitDx=0;exitDy=0;entryX=0.5;entryY=0;entryDx=0;entryDy=0;fontFamily=JetBrains Mono;fontSize=16;fontSource=https%3A%2F%2Ffonts.googleapis.com%2Fcss%3Ffamily%3DJetBrains%2BMono;" parent="1" source="41xBQkkzNVXENpJH_4RF-12" target="41xBQkkzNVXENpJH_4RF-46" edge="1">
          <mxGeometry relative="1" as="geometry" />
        </mxCell>
        <mxCell id="41xBQkkzNVXENpJH_4RF-50" value="" style="rounded=0;whiteSpace=wrap;html=1;fillColor=#ffe6cc;strokeColor=#d79b00;fontSize=16;fontFamily=JetBrains Mono;fontSource=https%3A%2F%2Ffonts.googleapis.com%2Fcss%3Ffamily%3DJetBrains%2BMono;" parent="1" vertex="1">
          <mxGeometry x="360" y="272.5" width="200" height="60" as="geometry" />
        </mxCell>
        <mxCell id="41xBQkkzNVXENpJH_4RF-51" value="Cat 的虚表" style="text;html=1;align=center;verticalAlign=middle;whiteSpace=wrap;rounded=0;fontSize=16;fontFamily=JetBrains Mono;fontSource=https%3A%2F%2Ffonts.googleapis.com%2Fcss%3Ffamily%3DJetBrains%2BMono;" parent="1" vertex="1">
          <mxGeometry x="360" y="272.5" width="100" height="30" as="geometry" />
        </mxCell>
        <mxCell id="41xBQkkzNVXENpJH_4RF-52" value="Cat&lt;span style=&quot;white-space: pre;&quot;&gt;::&lt;/span&gt;speak 指针" style="text;html=1;align=center;verticalAlign=middle;whiteSpace=wrap;rounded=0;fontSize=16;fontFamily=JetBrains Mono;labelBackgroundColor=none;fontSource=https%3A%2F%2Ffonts.googleapis.com%2Fcss%3Ffamily%3DJetBrains%2BMono;" parent="1" vertex="1">
          <mxGeometry x="360" y="302.5" width="200" height="30" as="geometry" />
        </mxCell>
      </root>
    </mxGraphModel>
  </diagram>
</mxfile>
